<svg xmlns="http://www.w3.org/2000/svg" xmlns:xlink="http://www.w3.org/1999/xlink" viewBox="0 0 96 96"><defs><path id="A" d="M0 0h96v96H0z"/></defs><clipPath id="B"><use xlink:href="#A"/></clipPath><path d="M68.1 26.2c-9.4-1.7-15.8 14.4-6.3 21.8 9.4 7.4 22.6-3.5 18.6-13.1-1.8-4-6.3-7.6-12.3-8.7M52.5 38.5c3-10.9-15-20.1-24.8-9.9s1.5 26.9 13.2 23.3c4.9-1.5 9.7-6.4 11.6-13.4" clip-path="url(#B)" fill="#e1fa7f"/><g fill="#6c18cd"><path d="M54.7 46.7c10.9 7 26.6.1 27.2-13.4.6-14.1-15.5-21.1-26.7-14.1-2.1 1.3-.4 3.8 1.7 2.5 8.6-5.4 20.3.4 21.2 10.5 1 11.4-11.5 17.6-20.7 11.7-1.6-1-4.5 1.7-2.7 2.8m1.8-12h16c1.9 0 3.6-3.3 1.2-3.3h-16c-1.9-.1-3.7 3.3-1.2 3.3" clip-path="url(#B)"/><path d="M63.2 25.3v16c0 2.3 3.7 1.2 3.7-.7v-16c0-2.3-3.7-1.2-3.7.7m-14 6c-.3 8.6-7 15.7-16 15-7.1-.6-13.1-6.3-14.1-13.3-1.3-8 4-15.8 12.1-17.2 9.6-1.6 17.6 6.3 18 15.5.1 2.3 3.8 1.2 3.7-.7-.5-11-9.6-19.6-20.8-18.2-9.9 1.3-17.6 10.3-16.9 20.3s9.7 17.6 19.6 16.9c10.1-.7 17.7-9 18.1-19 .1-2.3-3.6-1.2-3.7.7m44.7 50.3c0-8.5-4.3-16.6-11.5-21.2-6.2-4-12.8-4.1-19.8-4.1-1.9 0-3.6 3.3-1.2 3.3 6 0 11.7-.2 17.1 2.9 7 4 11.6 11.6 11.6 19.8.1 2.3 3.8 1.2 3.8-.7M37.7 56.3c-7.5 0-14.8-.5-21.6 3.2C7.7 63.9 2.2 72.8 2.2 82.3c0 2.3 3.7 1.2 3.7-.7 0-9.1 5.5-17.4 14.1-20.6 5.2-2 11.1-1.4 16.6-1.4 1.8 0 3.5-3.3 1.1-3.3m28.2 25.3c0-11.7-7.9-21.5-19-24.5-1.8-.5-4.2 2.6-2 3.2 9.9 2.8 17.3 11.5 17.3 22 0 2.3 3.7 1.2 3.7-.7" clip-path="url(#B)"/></g></svg>