<svg xmlns="http://www.w3.org/2000/svg" xmlns:xlink="http://www.w3.org/1999/xlink" fill="none" viewBox="0 0 157 184"><g clip-path="url(#A)"><path d="M147.024 130.48l4.097 4.925c3.801-9.197 5.879-19.285 5.879-29.846 0-43.315-35.153-78.442-78.5-78.442S0 62.244 0 105.559c0 9.849 1.84 19.224 5.107 27.888l6.056-15.012 39.904 11.867-8.967 41.535H36.52c12.113 7.713 26.542 12.164 41.981 12.164s29.809-4.451 41.922-12.105l-10.688-17.623 37.29-23.793z" fill="#c3ebec"/><path d="m51.066 130.3-39.903-11.867-6.057 15.072c6.057 15.961 17.22 29.371 31.412 38.39h5.582l8.966-41.595zm100.06 5.101-4.098-4.925-37.29 23.794 10.688 17.622c13.658-8.663 24.465-21.42 30.7-36.491z" fill="#b5e6ff"/><g fill="#ffacea"><path d="M82.36 38.508l-22.624 23.2c-2.138 2.136-5.641 2.136-7.779 0s-2.137-5.637 0-7.773l22.624-23.2c2.138-2.136 5.641-2.136 7.779 0 2.137 2.077 2.137 5.577 0 7.773zm-30.344 87.82H11.4l8.135-29.965h40.616l-8.135 29.965z"/><path d="M10.51 80.577v6.764c0 10.325 8.373 18.632 18.645 18.632h9.68c14.072 0 25.414-11.393 25.414-25.396V63.251H11.876L10.51 80.577z"/></g><path d="M66.683 102.651h-40.14a6.68 6.68 0 0 1-6.65-6.646V6.645A6.637 6.637 0 0 1 26.542 0h40.14a6.68 6.68 0 0 1 6.65 6.646v89.418c0 3.62-2.968 6.587-6.65 6.587z" fill="#577de8"/><path d="M73.334 6.646v89.418c0 3.62-2.97 6.646-6.65 6.646H26.542c-3.622 0-6.65-2.967-6.65-6.645V6.644A6.637 6.637 0 0126.542 0h40.14a6.637 6.637 0 016.65 6.646z" fill="#3a3677"/><path d="M24.761 84.139a.913.913 0 01-.89-.89v-66.16c0-.474.415-.89.89-.89h43.763c.475 0 .89.416.89.89v66.1c0 .475-.415.89-.89.89H24.761v.06z" fill="#e4e9ff"/><path d="M52.255 9.196H40.972a1.444 1.444 0 01-1.425-1.424c0-.772.654-1.424 1.425-1.424h11.283c.772 0 1.425.652 1.425 1.424 0 .771-.653 1.424-1.425 1.424zM46.613 97.252a4.636 4.636 0 01-4.632-4.628 4.636 4.636 0 014.632-4.628 4.636 4.636 0 014.631 4.628 4.636 4.636 0 01-4.631 4.629zm0-8.188a3.572 3.572 0 00-3.563 3.56 3.572 3.572 0 003.563 3.56 3.572 3.572 0 003.562-3.56 3.572 3.572 0 00-3.562-3.56z" fill="#deedff"/><path d="m79.747 58.27-4.988 4.984c-2.138 2.136-5.641 2.136-7.779 0s-2.138-5.637 0-7.773l4.988-4.984c2.138-2.136 5.641-2.136 7.779 0 2.138 2.076 2.138 5.636 0 7.773z" fill="#ffacea"/><path d="M70.543 54.531l5.106 5.103-2.375 2.374a2.795 2.795 0 01-1.96.83c-.771 0-1.424-.296-1.959-.83l-1.128-1.128a2.791 2.791 0 01-.831-1.958c0-.771.297-1.424.831-1.958l2.316-2.433zm0-.296l-2.494 2.492c-1.188 1.186-1.188 3.085 0 4.213l1.128 1.127a3.015 3.015 0 004.275 0l2.494-2.492-5.403-5.34z" fill="#f1f2f2"/><use xlink:href="#B" fill="#ffacea"/><path d="M70.543 78.266l5.106 5.102-2.375 2.374a2.795 2.795 0 01-1.96.83c-.771 0-1.424-.296-1.959-.83l-1.128-1.127a2.791 2.791 0 01-.831-1.959c0-.77.297-1.424.831-1.958l2.316-2.432zm0-.297l-2.494 2.492c-1.188 1.187-1.188 3.085 0 4.213l1.128 1.127a3.015 3.015 0 004.275 0l2.494-2.492-5.403-5.34z" fill="#f1f2f2"/><path d="m79.747 70.137-4.988 4.984c-2.138 2.136-5.641 2.136-7.779 0s-2.138-5.637 0-7.773l4.988-4.984c2.138-2.136 5.641-2.136 7.779 0 2.138 2.077 2.138 5.637 0 7.773z" fill="#ffacea"/><path d="M70.543 66.398l5.106 5.103-2.375 2.374a2.795 2.795 0 01-1.96.83c-.771 0-1.424-.296-1.959-.83l-1.128-1.128c-1.069-1.068-1.069-2.848 0-3.975l2.316-2.374zm0-.296l-2.494 2.492c-1.188 1.187-1.188 3.085 0 4.213l1.128 1.127a3.015 3.015 0 004.275 0l2.494-2.492-5.403-5.34z" fill="#f1f2f2"/><path d="M40.022 103.364v-7.892c0-11.155-9.085-20.234-20.248-20.234v-17.8A10.34 10.34 0 0 0 9.441 47.113v41.001c0 8.07 6.413 14.656 14.49 14.834l16.091.416z" fill="#ffacea"/><path d="m55.746 124.93-44.166-13.132-3.912 13.138 44.166 13.132 3.912-13.138z" fill="#d1eff0"/><path d="M146.906 134.454l-33.134 22.192-1.9-.297-15.142-18.394c-8.313 3.501-18.23.772-23.455-7.001l-14.489-21.599c5.582-3.738 13.064-2.195 16.805 3.323l7.125 9.731 1.366-.178-15.676-23.437c-.06-.119-.119-.238-.119-.356L53.68 76.78a5.212 5.212 0 01-.95-3.026c0-1.72.83-3.442 2.375-4.45 2.494-1.662 5.819-1.009 7.482 1.424l14.488 21.48.06-.06-.12-.178c-1.484-2.255-.89-5.34 1.367-6.824a4.995 4.995 0 015.76.238c-.594-2.018.178-4.272 2.018-5.46a4.995 4.995 0 015.76.238c-.594-2.017.178-4.272 2.019-5.459a4.921 4.921 0 016.413.89 5.005 5.005 0 012.138-4.925 4.96 4.96 0 016.294.712c.059.06.178.12.237.238l19.358 28.956c2.791 4.153 2.969 9.315.891 13.588l16.448 20.589 1.188-.297z" fill="#ffacea"/><path d="M61.161 71.498c-.89-1.365-2.79-1.72-4.156-.83l-1.306.89c-.713.474-1.129 1.127-1.247 1.898-.178.772 0 1.543.415 2.255l1.96 2.907 6.294-4.212-1.96-2.908zm-6.116 4.094c-.415-.593-.534-1.364-.415-2.076s.593-1.365 1.187-1.78l1.307-.89c1.306-.831 3.028-.535 3.86.77l1.84 2.79-5.997 3.975-1.782-2.789z" fill="#f1f2f2"/><path d="m140.61 120.75-39.426 28.351 8.116 11.27 39.426-28.35-8.116-11.271z" fill="#d1eff0"/></g><defs><clipPath id="A"><path d="M0 0h157v184H0z" fill="#fff"/></clipPath><path id="B" d="m79.747 82.004-4.988 4.984c-2.138 2.136-5.641 2.136-7.779 0s-2.138-5.637 0-7.773l4.988-4.984c2.138-2.136 5.641-2.136 7.779 0 2.138 2.077 2.138 5.637 0 7.773z"/></defs></svg>