<svg xmlns="http://www.w3.org/2000/svg" viewBox="0 0 161 143" fill="none"><g clip-path="url(#A)"><path d="M139.944 122.085c28.157-27.933 28.157-73.221 0-101.154s-73.808-27.933-101.965 0-28.157 73.22 0 101.154 73.808 27.932 101.965 0z" fill="#e8d2ff"/><path d="M88.953 102.746c-18.052 0-33.65 11.687-40.14 28.135C60.266 138.51 74.064 143 88.953 143c14.835 0 28.634-4.436 40.141-12.119-6.544-16.448-22.088-28.135-40.14-28.135z" fill="#5251fb"/><path d="M75.537 114.326c0 4.815 5.999 8.657 13.416 8.657s13.417-3.896 13.417-8.657V83.648H75.591v30.678h-.054z" fill="#fcbb83"/><path d="M75.537 97.608c3.6 2.705 7.853 4.274 12.38 4.274h2.018c4.527 0 8.78-1.569 12.38-4.274v-13.96H75.537v13.96z" fill="#f8ad73"/><path d="M60.102 53.402c-2.945 0-5.29 2.327-5.29 5.248s2.345 5.249 5.29 5.249 5.29-2.327 5.29-5.248-2.344-5.249-5.29-5.249z" fill="#fcbb83"/><path d="M88.954 12.066c-17.235 0-31.251 12.823-31.251 28.622 0 4.599 1.2 8.927 3.272 12.823l55.903-.054c2.072-3.842 3.272-8.17 3.272-12.769.055-15.799-13.962-28.622-31.196-28.622z" fill="#953d33"/><g fill="#fcbb83"><path d="M63.32 38.145a26.73 26.73 0 0 0-3 12.281v20.777c0 14.933 12.326 27.16 27.379 27.16h2.345c15.053 0 27.379-12.227 27.379-27.16V50.426a26.57 26.57 0 0 0-3-12.282H63.32z"/><path d="M60.32 71.203c0 14.933 12.326 27.16 27.379 27.16h2.345c15.053 0 27.379-12.227 27.379-27.16V50.427H60.32v20.776z"/></g><path d="M118.077 37.333c-1.963-.812-3.545-1.786-4.09-3.03L67.956 22.129v2.38h-3.163c.381 8.766 11.889 18.667 27.924 23.266 9.38 2.705 18.379 3.084 25.306 1.46l2.018-6.817h-1.964v-5.085z" fill="#953d33"/><path d="M88.954 78.834c4.363 0 7.853-3.517 7.853-7.791H81.045c0 4.328 3.546 7.791 7.909 7.791z" fill="#fff"/><path d="M59.993 33.49c-3.872 6.818 0 17.044 0 17.044 7.745 0 14.017-5.573 14.017-12.39-.055-.054-10.144-11.47-14.017-4.653zm57.703 15.963v-6.871l-7.745 3.841c1.909 1.678 4.963 3.03 7.745 3.03z" fill="#953d33"/><path d="M45.377 60.382a2.319 2.319 0 002.345-2.326V23.104a2.319 2.319 0 00-2.345-2.327H2.345A2.319 2.319 0 000 23.104v34.952a2.319 2.319 0 002.345 2.326h15.98L48.65 72.123l-10.308-11.74h7.036z" fill="#ffea81"/><path d="M40.25 29.703H7.58a1.44 1.44 0 0 0-1.417 1.407 1.44 1.44 0 0 0 1.418 1.407H40.25a1.44 1.44 0 0 0 1.418-1.407 1.44 1.44 0 0 0-1.418-1.407zm0 8.981H7.58a1.44 1.44 0 0 0-1.417 1.406 1.44 1.44 0 0 0 1.418 1.407H40.25a1.44 1.44 0 0 0 1.418-1.407 1.44 1.44 0 0 0-1.418-1.406zm0 8.984H7.58a1.44 1.44 0 0 0-1.417 1.407 1.44 1.44 0 0 0 1.418 1.406H40.25a1.44 1.44 0 0 0 1.418-1.406 1.44 1.44 0 0 0-1.418-1.407z" fill="#fff"/><path d="M103.516 56c-1.473 0-2.673 1.19-2.673 2.651s1.2 2.651 2.673 2.651 2.672-1.19 2.672-2.65-1.2-2.652-2.672-2.652zm-29.179 0c-1.473 0-2.672 1.19-2.672 2.651s1.2 2.651 2.672 2.651 2.672-1.19 2.672-2.65C76.955 57.19 75.81 56 74.337 56z" fill="#0a5b5e"/><path d="M108.231 41.948l-2.388 2.955 23.276 18.512 2.388-2.955-23.276-18.512z" fill="#36ffb9"/><path d="M106.62 43.986l-.751.928 23.276 18.512.75-.928-23.275-18.512z" fill="#0ff"/><path d="M131.513 60.448l-2.388 2.955 2.128 1.693 2.388-2.955-2.128-1.693z" fill="#ea6662"/><g fill="#e1ecee"><path d="M105.861 44.907l2.399-2.976-3.763-.595 1.364 3.57z"/><path d="M105.861 44.907l2.399-2.976-3.763-.595 1.364 3.57z"/></g><path d="M104.933 42.58l.818-1.028-1.254-.216.436 1.244z" fill="#0a5b5e"/><path d="M117.532 53.402c-2.945 0-5.29 2.327-5.29 5.248s2.345 5.249 5.29 5.249 5.29-2.327 5.29-5.248-2.399-5.249-5.29-5.249z" fill="#fcbb83"/></g><defs><clipPath id="A"><path fill="#fff" d="M0 0h161v143H0z"/></clipPath></defs></svg>