<svg xmlns="http://www.w3.org/2000/svg" xmlns:xlink="http://www.w3.org/1999/xlink" viewBox="0 0 20 20" fill="none"><g fill-rule="evenodd" fill="#fff"><path d="M.833 3.958c0-.345.28-.625.625-.625h17.083c.345 0 .625.28.625.625s-.28.625-.625.625H1.458c-.345 0-.625-.28-.625-.625zm0 12.083c0-.345.28-.625.625-.625h17.083c.345 0 .625.28.625.625s-.28.625-.625.625H1.458c-.345 0-.625-.28-.625-.625z"/><path d="M17.917 6.667V3.958h1.25v2.708c0 .345-.28.625-.625.625s-.625-.28-.625-.625zm-17.084 0V3.958h1.25v2.708c0 .345-.28.625-.625.625s-.625-.28-.625-.625zm.625 6.146c.345 0 .625.28.625.625v2.604H.833v-2.604c0-.345.28-.625.625-.625zm17.084 0c.345 0 .625.28.625.625v2.604h-1.25v-2.604c0-.345.28-.625.625-.625z"/></g><path d="M3.333 7.187c0-.115.093-.208.208-.208h1.25c.115 0 .208.093.208.208v5.521c0 .115-.093.208-.208.208h-1.25c-.115 0-.208-.093-.208-.208V7.187zm5.834 0c0-.115.093-.208.208-.208h1.667c.115 0 .208.093.208.208v5.521c0 .115-.093.208-.208.208H9.375c-.115 0-.208-.093-.208-.208V7.187z" fill="#fff"/><use xlink:href="#B" fill="#fff"/><use xlink:href="#B" x="1.667" fill="#fff"/><path d="M12.083 7.083c0-.058.047-.104.104-.104h.625c.057 0 .104.047.104.104v5.729c0 .057-.047.104-.104.104h-.625c-.057 0-.104-.047-.104-.104V7.083zm1.667 0c0-.058.047-.104.104-.104h.625c.057 0 .104.047.104.104v5.729c0 .057-.047.104-.104.104h-.625c-.058 0-.104-.047-.104-.104V7.083zm1.667.104c0-.115.093-.208.208-.208h.833c.115 0 .208.093.208.208v5.521c0 .115-.093.208-.208.208h-.833c-.115 0-.208-.093-.208-.208V7.187z" fill="#fff"/><defs ><path id="B" d="M5.833 7.083c0-.058.047-.104.104-.104h.625c.058 0 .104.047.104.104v5.729c0 .057-.047.104-.104.104h-.625c-.058 0-.104-.047-.104-.104V7.083z"/></defs></svg>