<?xml version="1.0" encoding="UTF-8" standalone="no"?>

<svg xmlns="http://www.w3.org/2000/svg" viewBox="0 0 396 400">
    <defs />
    <g fill="#ffffff" fill-rule="evenodd">
        <path
            d="M88.163 306.087c15.554 0 30.182-6.1 41.18-17.17l59.46-59.868c4.173-4.215 11.45-4.203 15.622 0l59.677 60.089c11 11.07 25.626 17.166 41.182 17.166H317l-75.306 75.826c-23.52 23.683-61.65 23.683-85.172 0L81 306.087h7.163M305.286 94.423c-15.556 0-30.182 6.093-41.183 17.156l-59.678 60.065c-4.296 4.323-11.314 4.342-15.622-.008l-59.461-59.84C118.343 100.735 103.715 94.64 88.16 94.64H81l75.521-75.998c23.523-23.666 61.654-23.666 85.174 0L317 94.422h-11.714" />
        <path
            d="M17.62 159.46l44.935-45.35h24.618c10.718 0 21.206 4.386 28.78 12.035l59.393 59.943a28.302 28.302 0 0020.158 8.415c7.303 0 14.601-2.806 20.158-8.408l59.62-60.169c7.571-7.648 18.061-12.034 28.779-12.034h29.166l45.152 45.568c23.495 23.711 23.495 62.153 0 85.865l-45.152 45.565-29.166.002c-10.718 0-21.208-4.386-28.779-12.034l-59.612-60.162c-10.778-10.864-29.558-10.87-40.324.005l-59.394 59.936c-7.573 7.649-18.06 12.035-28.779 12.035h-24.62l-44.934-45.347c-23.492-23.712-23.492-62.154 0-85.865" />
    </g>
</svg>