<svg xmlns="http://www.w3.org/2000/svg" xmlns:xlink="http://www.w3.org/1999/xlink" width="300.227" height="485.528" viewBox="0 0 300.227 485.528">
  <defs>
    <linearGradient id="linear-gradient" x1="0.5" x2="0.5" y2="1" gradientUnits="objectBoundingBox">
      <stop offset="0" stop-color="#c6bdf3"/>
      <stop offset="1" stop-color="#c5bcf2" stop-opacity="0"/>
    </linearGradient>
    <filter id="矩形_1731" x="0" y="0" width="300.227" height="485.528" filterUnits="userSpaceOnUse">
      <feOffset dx="-9" dy="8" input="SourceAlpha"/>
      <feGaussianBlur stdDeviation="7.5" result="blur"/>
      <feFlood flood-color="#573a53" flood-opacity="0.2"/>
      <feComposite operator="in" in2="blur"/>
      <feComposite in="SourceGraphic"/>
    </filter>
    <linearGradient id="linear-gradient-2" x1="0.5" x2="0.5" y2="1" gradientUnits="objectBoundingBox">
      <stop offset="0" stop-color="#fff"/>
      <stop offset="1" stop-color="#fff" stop-opacity="0"/>
    </linearGradient>
  </defs>
  <g id="组_6760" data-name="组 6760" transform="translate(31.5 14.5)">
    <g transform="matrix(1, 0, 0, 1, -31.5, -14.5)" filter="url(#矩形_1731)">
      <rect id="矩形_1731-2" data-name="矩形 1731" width="255.227" height="440.528" rx="28" transform="translate(31.5 14.5)" fill="url(#linear-gradient)"/>
    </g>
    <path id="路径_17857" data-name="路径 17857" d="M1059.528,776.363c0,13.267-11.106,24.022-24.806,24.022H852.807c-13.7,0-24.807-10.755-24.807-24.022V408.022C828,394.755,839.106,384,852.807,384h24.807v8.6a16.28,16.28,0,0,0,16.538,16.015h99.227a16.28,16.28,0,0,0,16.537-16.015V384h24.807c13.7,0,24.806,10.755,24.806,24.022Zm0,0" transform="translate(-815.333 -373.468)" fill="url(#linear-gradient-2)"/>
    <rect id="矩形_1728" data-name="矩形 1728" width="73.766" height="8.392" rx="4.196" transform="translate(90.729 17.089)" fill="#fff"/>
    <g id="组_5482" data-name="组 5482" transform="translate(14.069 70.127)">
      <rect id="矩形_1733" data-name="矩形 1733" width="66.429" height="6.993" transform="translate(62.123 11.271)" fill="#ba4dca" opacity="0.15"/>
      <rect id="矩形_1734" data-name="矩形 1734" width="97.895" height="6.993" transform="translate(62.123 26.006)" fill="#ba4dca" opacity="0.15"/>
      <rect id="矩形_1738" data-name="矩形 1738" width="188.798" height="6.993" transform="translate(24.39 51.031)" fill="#ba4dca" opacity="0.15"/>
      <rect id="矩形_1735" data-name="矩形 1735" width="55.94" height="69.925" transform="translate(24.39 78.373)" fill="#be50cc" opacity="0.16"/>
      <rect id="矩形_1736" data-name="矩形 1736" width="55.94" height="69.925" transform="translate(90.818 78.373)" fill="#be50cc" opacity="0.16"/>
      <rect id="矩形_1737" data-name="矩形 1737" width="55.94" height="69.925" transform="translate(157.247 78.373)" fill="#e3e7f3" opacity="0.46"/>
      <line id="直线_127" data-name="直线 127" x2="229.734" transform="translate(0 0)" fill="none" stroke="#ebbeee" stroke-width="1" opacity="0.22"/>
      <path id="路径_19840" data-name="路径 19840" d="M0,0H229.734" transform="translate(0 158.041)" fill="none" stroke="#ebbeee" stroke-width="1" opacity="0.22"/>
      <g id="组_6764" data-name="组 6764" transform="translate(21.277 7.8)" opacity="0.39">
        <g id="组_6808" data-name="组 6808" transform="translate(0 0)">
          <ellipse id="椭圆_3217" data-name="椭圆 3217" cx="14.334" cy="14.334" rx="14.334" ry="14.334" fill="#b249c4"/>
          <ellipse id="椭圆_3218" data-name="椭圆 3218" cx="5.576" cy="7.208" rx="5.576" ry="7.208" transform="translate(8.758 4.778)" fill="#fff"/>
          <path id="路径_19887" data-name="路径 19887" d="M556.889,406.945c-4.486,0-8.437,1.62-10.752,4.078a14.324,14.324,0,0,0,21.5,0C565.326,408.565,561.375,406.945,556.889,406.945Z" transform="translate(-542.556 -387.216)" fill="#fff"/>
          <rect id="矩形_3332" data-name="矩形 3332" width="5.035" height="9.103" rx="2.518" transform="translate(11.816 14.334)" fill="#fff"/>
          <path id="路径_19888" data-name="路径 19888" d="M566.213,368.487c.325.935.2,1.829-.288,2s-1.138-.454-1.463-1.389-.2-1.829.288-2S565.889,367.553,566.213,368.487Z" transform="translate(-556.686 -356.167)" fill="#fff"/>
          <path id="路径_19889" data-name="路径 19889" d="M615.8,368.487c-.325.935-.2,1.829.288,2s1.138-.454,1.463-1.389.2-1.829-.288-2S616.127,367.553,615.8,368.487Z" transform="translate(-596.663 -356.167)" fill="#fff"/>
          <path id="路径_19890" data-name="路径 19890" d="M575.3,341.494a20.806,20.806,0,0,0-.634-5.3,6.874,6.874,0,0,0-4-4.22,5.972,5.972,0,0,0-5.692.836,2.2,2.2,0,0,0-.989,1.764,2.174,2.174,0,0,0-2.462,1.257,5.833,5.833,0,0,0-.36,2.962c.186,2.944.635,5.963-.162,8.8l7.331.222c.782.024,1.566.047,2.348.014,2-.086,4.064-.536,5.943.141A25.211,25.211,0,0,1,575.3,341.494Z" transform="translate(-554.124 -328.551)" fill="#fff"/>
        </g>
      </g>
    </g>
    <g id="组_6802" data-name="组 6802" transform="translate(98.432 44.529)">
      <path id="路径_17879" data-name="路径 17879" d="M231.637,57.61a.3.3,0,0,0-.046.093.83.83,0,0,0-.028.261,1.7,1.7,0,0,0,.075.5v6.176a8.781,8.781,0,0,1-.186,1.829,4.412,4.412,0,0,1-.644,1.558,3.221,3.221,0,0,1-1.25,1.082,4.48,4.48,0,0,1-2.024.4h-.243a4.356,4.356,0,0,1-1.726-.289,2.745,2.745,0,0,1-1.035-.737,2.417,2.417,0,0,1-.5-.98,4.255,4.255,0,0,1-.131-1.017,3.04,3.04,0,0,1,.1-.793,2.2,2.2,0,0,1,.3-.672,1.622,1.622,0,0,1,.476-.467,1.162,1.162,0,0,1,.634-.177q.336,0,.429.177a.777.777,0,0,1,.093.364,1.272,1.272,0,0,1-.168.681,2.9,2.9,0,0,1-.364.476q-.2.206-.364.41a.77.77,0,0,0-.168.5,1.425,1.425,0,0,0,.6,1.287,2.667,2.667,0,0,0,1.493.392,2.788,2.788,0,0,0,1.362-.317,3.115,3.115,0,0,0,.961-.8,3.413,3.413,0,0,0,.569-1.054,3.459,3.459,0,0,0,.186-1.073l-.28.018a2.16,2.16,0,0,1-1.166-.308,2.787,2.787,0,0,1-.821-.774,3.425,3.425,0,0,1-.485-1.007,3.6,3.6,0,0,1-.159-1.008V61.7a4.4,4.4,0,0,1,.093-.83,8.339,8.339,0,0,1,.261-.989,7.7,7.7,0,0,1,.411-1.008,6.271,6.271,0,0,1,.522-.886,2.942,2.942,0,0,1,.6-.634,1.065,1.065,0,0,1,.653-.243.969.969,0,0,1,.3.056l1.306.093a.663.663,0,0,1,.252.093A.283.283,0,0,1,231.637,57.61Zm-1.6,2.239c.025-.1.05-.193.075-.28a1.1,1.1,0,0,0,.037-.3.816.816,0,0,0-.121-.438.474.474,0,0,0-.438-.2.814.814,0,0,0-.672.336,2.432,2.432,0,0,0-.4.8,5.487,5.487,0,0,0-.2.97,7.712,7.712,0,0,0-.056.821q0,.243.037.7a4.161,4.161,0,0,0,.177.905,2.574,2.574,0,0,0,.392.783.806.806,0,0,0,.681.336c.025,0,.1-.006.215-.018a1.059,1.059,0,0,0,.27-.056Z" transform="translate(-223.894 -57.106)" fill="#474d53"/>
      <path id="路径_17880" data-name="路径 17880" d="M281.565,87.058a3.719,3.719,0,0,0-.457.868,9.583,9.583,0,0,0-.308.989q-.131.514-.215,1.026t-.177.979c-.025.075-.121.125-.289.149a2.769,2.769,0,0,1-.364.037,3.279,3.279,0,0,1-.55-.037.51.51,0,0,1-.327-.177.994.994,0,0,1-.168-.429,7.162,7.162,0,0,1-.093-.774l.243-5.542c0-.161.087-.243.261-.243a1.722,1.722,0,0,1,.261.028,2.88,2.88,0,0,1,.354.084,1.24,1.24,0,0,1,.317.14.237.237,0,0,1,.131.2v3.787a.512.512,0,0,0,.056-.149q.13-.336.317-.83a9.9,9.9,0,0,1,.41-.942,4.388,4.388,0,0,1,.476-.765.685.685,0,0,1,.513-.317.747.747,0,0,1,.513.159,1.028,1.028,0,0,1,.27.4,1.8,1.8,0,0,1,.112.522q.018.28.018.541,0,.187-.037.616t-.037,1.287a3.786,3.786,0,0,0,.093.877q.094.392.373.392a.5.5,0,0,0,.373-.186,2.121,2.121,0,0,0,.308-.467,3.642,3.642,0,0,0,.233-.6,2.813,2.813,0,0,0,.112-.6q.018-.354.28-.354a.225.225,0,0,1,.224.112.572.572,0,0,1,.056.261v.037a4.189,4.189,0,0,1-.14.839,3.6,3.6,0,0,1-.354.877,2.233,2.233,0,0,1-.607.69,1.48,1.48,0,0,1-.914.28,1.015,1.015,0,0,1-1.073-.606,5.271,5.271,0,0,1-.233-1.8Z" transform="translate(-269.549 -79.464)" fill="#474d53"/>
      <path id="路径_17881" data-name="路径 17881" d="M317.4,91a.838.838,0,0,1-.3.69,1.934,1.934,0,0,1-.681.355,3.688,3.688,0,0,1-.765.14q-.383.028-.551.028a4.567,4.567,0,0,1-.643-.056,4.316,4.316,0,0,1-.747-.177,1.748,1.748,0,0,1-.615-.345.717.717,0,0,1-.252-.56.3.3,0,0,1,.159-.289.61.61,0,0,1,.709.065q.2.15.411.317a3.949,3.949,0,0,0,.476.317,1.182,1.182,0,0,0,.6.149,1.134,1.134,0,0,0,.4-.1.366.366,0,0,0,.252-.364.756.756,0,0,0-.215-.5,4.4,4.4,0,0,0-.541-.5q-.327-.261-.7-.541a6.56,6.56,0,0,1-.7-.606,3.166,3.166,0,0,1-.541-.719,1.759,1.759,0,0,1-.215-.858,1.551,1.551,0,0,1,.42-1.1,3.138,3.138,0,0,1,.989-.709,5.006,5.006,0,0,1,1.166-.373,5.409,5.409,0,0,1,.933-.112,1.656,1.656,0,0,1,.634.131.5.5,0,0,1,.317.5,1.662,1.662,0,0,1-.047.326,1.783,1.783,0,0,1-.149.42,1.29,1.29,0,0,1-.27.364.6.6,0,0,1-.429.159.227.227,0,0,1-.149-.066c-.05-.043-.106-.093-.168-.149a1.527,1.527,0,0,0-.2-.149.426.426,0,0,0-.233-.065,1.027,1.027,0,0,0-.915.382,1.414,1.414,0,0,0-.261.812,1.133,1.133,0,0,0,.439.784q.438.411.97.821t.97.811A1.106,1.106,0,0,1,317.4,91Z" transform="translate(-298.108 -80.498)" fill="#474d53"/>
      <path id="路径_17882" data-name="路径 17882" d="M333.688,66.613q.019-.952.056-1.94t.074-1.829q0-.149-.3-.205t-.672-.112a2.948,2.948,0,0,1-.672-.177.415.415,0,0,1-.3-.4q0-.242.485-.28t1.437-.037c.049,0,.084-.075.1-.224s.031-.339.038-.569.012-.476.018-.737.016-.507.028-.737a3.855,3.855,0,0,1,.065-.569c.031-.149.071-.224.121-.224a2.614,2.614,0,0,1,.336.037q.242.037.5.1a2.477,2.477,0,0,1,.457.159q.2.094.2.205l-.2,2.426c0,.075.065.128.2.158a2.578,2.578,0,0,0,.5.056c.2.006.423.009.653.009a3.644,3.644,0,0,1,.653.056,1.448,1.448,0,0,1,.5.177.4.4,0,0,1,.2.364.351.351,0,0,1-.037.121c-.025.056-.056.084-.093.084a.186.186,0,0,1-.1-.056.638.638,0,0,0-.345-.056c-.05,0-.186.007-.41.019s-.46.031-.709.056-.476.053-.681.084-.32.072-.345.121a2.767,2.767,0,0,0-.047.438q-.028.4-.056,1.054t-.047,1.5q-.019.849-.019,1.782a6.19,6.19,0,0,0,.037.69,3.893,3.893,0,0,0,.112.606,1.353,1.353,0,0,0,.2.438.351.351,0,0,0,.289.168.624.624,0,0,0,.448-.205,2,2,0,0,0,.373-.56,5.437,5.437,0,0,0,.3-.8q.131-.448.224-.914a1.28,1.28,0,0,1,.131-.4.245.245,0,0,1,.224-.121.359.359,0,0,1,.233.084.5.5,0,0,1,.1.382.983.983,0,0,1-.019.243q-.056.336-.215.924a6.883,6.883,0,0,1-.429,1.157,4.035,4.035,0,0,1-.663,1,1.2,1.2,0,0,1-.914.429,1.39,1.39,0,0,1-.877-.289,2.235,2.235,0,0,1-.625-.8,4.7,4.7,0,0,1-.383-1.213,8.183,8.183,0,0,1-.131-1.5Z" transform="translate(-313.985 -58.328)" fill="#474d53"/>
      <path id="路径_17883" data-name="路径 17883" d="M372.371,84.584a2.566,2.566,0,0,1-.187.616,3.531,3.531,0,0,1-.383.681,2.4,2.4,0,0,1-.541.55,1.131,1.131,0,0,1-.681.224,1.329,1.329,0,0,1-.98-.429,2.02,2.02,0,0,1-.513-1.213q-.112.3-.261.69a3.672,3.672,0,0,1-.373.728,2.543,2.543,0,0,1-.513.569,1.055,1.055,0,0,1-.681.233.566.566,0,0,1-.168-.019c-.037-.012-.078-.028-.121-.046a.825.825,0,0,0-.149-.047,1.123,1.123,0,0,0-.233-.019,1.062,1.062,0,0,1-.755-.289,2.1,2.1,0,0,1-.495-.737,4.282,4.282,0,0,1-.271-.979,6.438,6.438,0,0,1-.084-1,17.846,17.846,0,0,1,.121-2.127,8.091,8.091,0,0,1,.4-1.782,3.366,3.366,0,0,1,.727-1.231,1.46,1.46,0,0,1,1.082-.457,1.907,1.907,0,0,1,.569.065,2.822,2.822,0,0,1,.364.149q.168.084.364.177a2.068,2.068,0,0,0,.55.149,1.343,1.343,0,0,1,.551.532,2.022,2.022,0,0,1,.205.662,4.174,4.174,0,0,1,.028.737,3.812,3.812,0,0,0,.037.756c0,.013.028.031.084.056s.122.053.2.084a.6.6,0,0,1,.2.131.292.292,0,0,1,.084.215v.074a3.39,3.39,0,0,0-.224.859q-.037.373-.037.9,0,.261.028.569a3.964,3.964,0,0,0,.094.579,1.235,1.235,0,0,0,.2.448.4.4,0,0,0,.336.177.51.51,0,0,0,.4-.224,2.214,2.214,0,0,0,.3-.513,5.1,5.1,0,0,0,.2-.587,3.422,3.422,0,0,0,.1-.448q.037-.224.187-.224a.234.234,0,0,1,.177.1.586.586,0,0,1,.084.364v.14A.858.858,0,0,1,372.371,84.584Zm-3.452-3.023a3.75,3.75,0,0,0-.037-.485,2.335,2.335,0,0,0-.13-.523,1.06,1.06,0,0,0-.28-.41.727.727,0,0,0-.5-.168.99.99,0,0,0-.849.476,3.856,3.856,0,0,0-.513,1.119,6.731,6.731,0,0,0-.243,1.325q-.056.682-.056,1.073,0,.3.028.718a6.122,6.122,0,0,0,.1.793,2.294,2.294,0,0,0,.215.634.414.414,0,0,0,.364.261.948.948,0,0,0,.83-.42,3.1,3.1,0,0,0,.439-1.045,9.552,9.552,0,0,0,.214-1.344q.065-.718.121-1.315a.541.541,0,0,1,.168-.4q.131-.084.131-.121Z" transform="translate(-341.603 -74.956)" fill="#474d53"/>
      <path id="路径_17884" data-name="路径 17884" d="M412.482,87.479a.264.264,0,0,1-.168.261.784.784,0,0,1-.317.075l-.373-.037q-.094,0-.094.112l-.018.224q.019.5.018,1.269v1.474q0,.746-.046,1.465a5.925,5.925,0,0,1-.215,1.287,2.355,2.355,0,0,1-.476.914,1.079,1.079,0,0,1-.849.345q-.467,0-.98-.047a2.933,2.933,0,0,1-.933-.234,1.71,1.71,0,0,1-.69-.55,1.6,1.6,0,0,1-.271-.979,5.888,5.888,0,0,1,.141-1.26,6.761,6.761,0,0,1,.4-1.25,7.383,7.383,0,0,1,.629-1.157,6.231,6.231,0,0,1,.8-.98q.225-.224.5-.457t.479-.382v-.019q.037-.392.056-.784t.018-.8q-.093.168-.225.457a3.632,3.632,0,0,1-.31.551,2.4,2.4,0,0,1-.4.457.752.752,0,0,1-.506.2.588.588,0,0,1-.263-.056.725.725,0,0,0-.319-.057,1.7,1.7,0,0,1-.872-.28,1.62,1.62,0,0,1-.544-.672,3.511,3.511,0,0,1-.272-1.017,10.4,10.4,0,0,1-.075-1.316,16.446,16.446,0,0,1,.1-1.81,8.084,8.084,0,0,1,.365-1.707,3.641,3.641,0,0,1,.7-1.269,1.429,1.429,0,0,1,1.115-.494.5.5,0,0,1,.2.056l.262.121.281.131a1.275,1.275,0,0,0,.215.084,5.077,5.077,0,0,1,.693.187,1.876,1.876,0,0,1,.543.289,1.224,1.224,0,0,1,.356.466,1.739,1.739,0,0,1,.131.718,2.877,2.877,0,0,1-.047.541,3.361,3.361,0,0,0-.047.616.211.211,0,0,0,.106.205,1.187,1.187,0,0,0,.243.093,2.058,2.058,0,0,1,.248.084.19.19,0,0,1,.112.2.542.542,0,0,1-.084.177c-.056.093-.091.153-.1.177a2.169,2.169,0,0,0-.094.476c-.025.218-.044.454-.056.709s-.022.516-.028.784-.01.507-.01.718v.643q0,.4.018.662h.075a.312.312,0,0,0,.075-.009.24.24,0,0,1,.056-.009,1.469,1.469,0,0,1,.457.1Q412.482,87.273,412.482,87.479Zm-2.369-5.765a3.336,3.336,0,0,0-.037-.466,2.159,2.159,0,0,0-.132-.494,1.028,1.028,0,0,0-.273-.392.641.641,0,0,0-.442-.159.98.98,0,0,0-.667.28,2.384,2.384,0,0,0-.545.793,5.5,5.5,0,0,0-.376,1.25,8.938,8.938,0,0,0-.141,1.67q0,.392.028.812a6.023,6.023,0,0,0,.093.756,1.656,1.656,0,0,0,.205.56.418.418,0,0,0,.364.224.9.9,0,0,0,.69-.336,2.78,2.78,0,0,0,.494-.83,5.777,5.777,0,0,0,.3-1.027,6.756,6.756,0,0,0,.121-.923,5.407,5.407,0,0,1,.06-.737.776.776,0,0,1,.079-.252.718.718,0,0,0,.149-.354A2.619,2.619,0,0,0,410.112,81.713Zm-.075,6.475a3.387,3.387,0,0,0-.819.839,6.721,6.721,0,0,0-.669,1.176,7.564,7.564,0,0,0-.442,1.288,4.991,4.991,0,0,0-.16,1.175,2.5,2.5,0,0,0,.038.411,1.793,1.793,0,0,0,.122.42.854.854,0,0,0,.245.326.591.591,0,0,0,.386.131.788.788,0,0,0,.649-.327,2.442,2.442,0,0,0,.4-.774,4.591,4.591,0,0,0,.188-.914q.047-.466.047-.746v-.168q0-.112.009-.429t.009-.886Z" transform="translate(-376.08 -75.332)" fill="#474d53"/>
      <path id="路径_17885" data-name="路径 17885" d="M449.343,86.429a5.206,5.206,0,0,1-.084.625,5.4,5.4,0,0,1-.3,1.045,3.429,3.429,0,0,1-.578.98,1.158,1.158,0,0,1-.924.429,1.181,1.181,0,0,1-.951-.42,2.893,2.893,0,0,1-.541-1.008,5.68,5.68,0,0,1-.243-1.231q-.056-.644-.056-1.073a8.765,8.765,0,0,1,.056-.98q.056-.494.075-.98a.177.177,0,0,0-.149-.186,1.165,1.165,0,0,0-.28-.037.441.441,0,0,0-.28.056.273.273,0,0,0-.075.13l-.074.6q-.075.6-.159,1.148t-.187.97a2.745,2.745,0,0,1-.243.672q-.14.252-.326.252h-.019a.274.274,0,0,1-.14-.037c-.043-.025-.065-.087-.065-.186a1.048,1.048,0,0,1,.037-.224,8.252,8.252,0,0,0,.187-1.082q.037-.429.056-.765v-.131c0-.062,0-.137.009-.224s.009-.193.009-.317v-.914a3.472,3.472,0,0,0-.037-.485l-.056-1.1a.285.285,0,0,1,.093-.205.929.929,0,0,1,.243-.168,1.5,1.5,0,0,1,.616-.149c.211,0,.317.137.317.41v.093l-.019.411v.112q0,.131.056.158a1.123,1.123,0,0,0,.224.065h.056c.1.013.261.025.486.037a6.263,6.263,0,0,1,.672.075,2.2,2.2,0,0,1,.588.177.378.378,0,0,1,.252.345.916.916,0,0,1-.037.215,2.56,2.56,0,0,1-.094.28c-.037.093-.068.177-.093.252a.6.6,0,0,0-.038.149,10.618,10.618,0,0,0-.336,2.687c0,.074.006.212.019.41a5.478,5.478,0,0,0,.074.616,2.3,2.3,0,0,0,.168.56c.074.162.168.243.28.243a.621.621,0,0,0,.5-.345,3.98,3.98,0,0,0,.392-.8,7.082,7.082,0,0,0,.271-.924q.1-.466.14-.69.037-.2.121-.252a.332.332,0,0,1,.159-.046q.261,0,.261.336c0,.025,0,.09-.009.2A1.461,1.461,0,0,1,449.343,86.429Z" transform="translate(-407.363 -77.398)" fill="#474d53"/>
      <path id="路径_17886" data-name="路径 17886" d="M481.366,84.584a2.578,2.578,0,0,1-.186.616,3.535,3.535,0,0,1-.383.681,2.392,2.392,0,0,1-.541.55,1.132,1.132,0,0,1-.681.224,1.329,1.329,0,0,1-.98-.429,2.019,2.019,0,0,1-.513-1.213q-.112.3-.261.69a3.669,3.669,0,0,1-.373.728,2.538,2.538,0,0,1-.513.569,1.052,1.052,0,0,1-.681.233.565.565,0,0,1-.168-.019c-.037-.012-.078-.028-.121-.046a.825.825,0,0,0-.149-.047,1.12,1.12,0,0,0-.233-.019,1.062,1.062,0,0,1-.756-.289,2.094,2.094,0,0,1-.494-.737,4.263,4.263,0,0,1-.271-.979,6.41,6.41,0,0,1-.084-1,17.807,17.807,0,0,1,.121-2.127,8.109,8.109,0,0,1,.4-1.782,3.376,3.376,0,0,1,.728-1.231,1.461,1.461,0,0,1,1.083-.457,1.9,1.9,0,0,1,.569.065,2.826,2.826,0,0,1,.364.149c.112.056.233.115.364.177a2.065,2.065,0,0,0,.55.149,1.343,1.343,0,0,1,.551.532,2.023,2.023,0,0,1,.205.662,4.18,4.18,0,0,1,.028.737,3.826,3.826,0,0,0,.037.756c0,.013.028.031.084.056s.121.053.2.084a.6.6,0,0,1,.2.131.292.292,0,0,1,.084.215v.074a3.365,3.365,0,0,0-.224.859q-.038.373-.037.9,0,.261.028.569a3.936,3.936,0,0,0,.093.579,1.24,1.24,0,0,0,.2.448.4.4,0,0,0,.336.177.509.509,0,0,0,.4-.224,2.182,2.182,0,0,0,.3-.513,5.081,5.081,0,0,0,.2-.587,3.367,3.367,0,0,0,.1-.448c.025-.149.087-.224.187-.224a.234.234,0,0,1,.177.1.589.589,0,0,1,.084.364v.14A.849.849,0,0,1,481.366,84.584Zm-3.452-3.023a3.774,3.774,0,0,0-.037-.485,2.332,2.332,0,0,0-.13-.523,1.062,1.062,0,0,0-.28-.41.727.727,0,0,0-.5-.168.99.99,0,0,0-.849.476,3.855,3.855,0,0,0-.513,1.119,6.74,6.74,0,0,0-.243,1.325q-.055.682-.056,1.073,0,.3.028.718a6.044,6.044,0,0,0,.1.793,2.286,2.286,0,0,0,.214.634.414.414,0,0,0,.364.261.947.947,0,0,0,.83-.42,3.094,3.094,0,0,0,.439-1.045,9.561,9.561,0,0,0,.215-1.344q.065-.718.121-1.315a.539.539,0,0,1,.168-.4c.087-.056.13-.1.13-.121Z" transform="translate(-432.538 -74.956)" fill="#474d53"/>
      <path id="路径_17887" data-name="路径 17887" d="M522.68,86.725q-.262.5-.485,1.063t-.336.877q-.019.093-.1.392l-.187.662q-.1.364-.177.718a2.928,2.928,0,0,0-.075.578q0,.094-.168.168a1.056,1.056,0,0,1-.429.075,1.581,1.581,0,0,1-.653-.112.738.738,0,0,1-.364-.364,1.826,1.826,0,0,1-.149-.662q-.028-.41-.028-.989v-1.4c0-.1,0-.2-.009-.3s-.028-.162-.066-.187c-.063.025-.14.187-.233.485a9.921,9.921,0,0,0-.261,1.092q-.121.644-.215,1.353a9.8,9.8,0,0,0-.093,1.269.227.227,0,0,1-.214.243,2.821,2.821,0,0,1-.476.037,1.888,1.888,0,0,1-.252-.028q-.177-.028-.354-.066a1.66,1.66,0,0,1-.327-.1.324.324,0,0,1-.186-.159,3.164,3.164,0,0,1-.14-.8q-.047-.56-.047-1.735,0-.69.028-1.6t.065-2.146q0-.168-.019-.439c-.013-.18-.018-.283-.018-.308a.157.157,0,0,1,.121-.177.909.909,0,0,1,.177-.028,2.054,2.054,0,0,1,.308.028q.177.028.354.065c.118.025.227.053.327.084a.909.909,0,0,1,.205.084v4.5q.093-.373.214-.868t.28-.98a8.656,8.656,0,0,1,.346-.9,1.826,1.826,0,0,1,.392-.6.645.645,0,0,1,.28-.084,2.573,2.573,0,0,1,.336-.028,1.23,1.23,0,0,1,.233.028,1.364,1.364,0,0,1,.27.084.987.987,0,0,1,.233.14.319.319,0,0,1,.121.2v3.191c0,.075.013.112.038.112a1.756,1.756,0,0,0,.213-.5l.417-1.194q.241-.69.52-1.418a11.717,11.717,0,0,1,.5-1.157c.024-.05.108-.077.25-.084s.269-.009.38-.009a1.078,1.078,0,0,1,.352.084,2.05,2.05,0,0,1,.809.569.6.6,0,0,1,.158.392.736.736,0,0,1-.112.214,1.085,1.085,0,0,0-.149.364,6.753,6.753,0,0,0-.177,1.026q-.048.5-.047,1.288,0,.336.028.672a4.057,4.057,0,0,0,.093.606,1.363,1.363,0,0,0,.177.438.342.342,0,0,0,.3.168.694.694,0,0,0,.466-.177,1.51,1.51,0,0,0,.354-.476,3.9,3.9,0,0,0,.261-.7,8.507,8.507,0,0,0,.187-.831q.093-.448.336-.448a.216.216,0,0,1,.2.075.752.752,0,0,1,.047.336.771.771,0,0,1-.019.205,4.557,4.557,0,0,1-.158.756,5.758,5.758,0,0,1-.392,1.026,3.445,3.445,0,0,1-.625.9,1.168,1.168,0,0,1-.859.383,1.559,1.559,0,0,1-.945-.27,1.775,1.775,0,0,1-.571-.728,3.923,3.923,0,0,1-.286-1.054,9.038,9.038,0,0,1-.083-1.25v-.13Z" transform="translate(-468.142 -79.653)" fill="#474d53"/>
    </g>
    <g id="路径_19883" data-name="路径 19883" transform="matrix(0.966, -0.259, 0.259, 0.966, 23.983, 323.418)" fill="none" stroke-linecap="round" stroke-linejoin="bevel">
      <path d="M.489,2.811A4.947,4.947,0,0,1,9.838,4.183a4.95,4.95,0,1,1,6.054,7.65L7.126,16.612a1.282,1.282,0,0,1-1.74-.513L.607,7.334A4.955,4.955,0,0,1,.489,2.811Z" stroke="none"/>
      <path d="M 4.951054573059082 0 C 3.081338882446289 0 1.297004699707031 1.101682662963867 0.4892158508300781 2.811152458190918 C -0.2377853393554688 4.349832534790039 -0.1178855895996094 6.007262229919434 0.6067543029785156 7.334342002868652 L 5.38587474822998 16.09917259216309 C 5.723325729370117 16.72174263000488 6.504115104675293 16.95146179199219 7.126265525817871 16.61212158203125 L 15.89179515838623 11.83302307128906 C 17.21829605102539 11.10874176025391 18.21689414978027 9.781461715698242 18.44020462036133 8.093962669372559 C 18.71154594421387 6.035922050476074 17.59474563598633 3.953082084655762 15.72923469543457 3.040872573852539 C 13.59995460510254 1.999273300170898 11.25169563293457 2.607442855834961 9.838154792785645 4.182672500610352 C 9.50306510925293 2.093282699584961 7.859145164489746 0.3106517791748047 5.505775451660156 0.03260231018066406 C 5.320538520812988 0.01070213317871094 5.135481834411621 0 4.951054573059082 0 M 4.951055526733398 -2.999998092651367 C 5.253435134887695 -2.999998092651367 5.558574676513672 -2.982048034667969 5.85799503326416 -2.946647644042969 C 7.65638542175293 -2.734167098999023 9.276294708251953 -1.957517623901367 10.54235458374023 -0.7006874084472656 C 10.73722171783447 -0.5072422027587891 10.9216365814209 -0.3035335540771484 11.09504795074463 -0.09070777893066406 C 11.87532997131348 -0.3435287475585938 12.6962833404541 -0.4762496948242188 13.52975463867188 -0.47625732421875 C 14.74856472015381 -0.47625732421875 15.93209457397461 -0.1995983123779297 17.04749488830566 0.3460216522216797 C 18.53062438964844 1.071262359619141 19.73489570617676 2.237902641296387 20.52971458435059 3.719642639160156 C 21.3243350982666 5.20101261138916 21.63027572631836 6.84923267364502 21.41446495056152 8.486102104187012 C 21.24444580078125 9.770872116088867 20.76828575134277 11.00112247467041 20.03726577758789 12.04527282714844 C 19.33855438232422 13.04326248168945 18.4022159576416 13.88037204742432 17.32947540283203 14.46609210968018 L 8.562335014343262 19.24607276916504 C 7.935364723205566 19.58804321289062 7.226634979248047 19.76891326904297 6.513185501098633 19.76891326904297 C 4.941011428833008 19.76891326904297 3.499290466308594 18.91165351867676 2.749893188476562 17.53151321411133 L -2.027145385742188 8.770502090454102 C -2.612644195556641 7.6982421875 -2.947334289550781 6.486292839050293 -2.994165420532227 5.26726245880127 C -3.043115615844727 3.99305248260498 -2.776544570922852 2.70057201385498 -2.223255157470703 1.529552459716797 C -0.9229946136474609 -1.222087860107422 1.893064498901367 -2.999998092651367 4.951055526733398 -2.999998092651367 Z" stroke="none" fill="#fff"/>
    </g>
    <ellipse id="椭圆_3213" data-name="椭圆 3213" cx="2.305" cy="2.305" rx="2.305" ry="2.305" transform="matrix(0.966, -0.259, 0.259, 0.966, 32.257, 345.278)" fill="#fffb81"/>
  </g>
</svg>
